<?xml version="1.0" encoding="utf-8"?>
<!-- Generator: Adobe Illustrator 23.0.2, SVG Export Plug-In . SVG Version: 6.00 Build 0)  -->
<svg version="1.1" id="Layer_1" xmlns="http://www.w3.org/2000/svg" xmlns:xlink="http://www.w3.org/1999/xlink" x="0px" y="0px"
	 viewBox="0 0 278.6 278.6" style="enable-background:new 0 0 278.6 278.6;" xml:space="preserve">
<style type="text/css">
	.st0{fill:#FFFFFF;}
</style>
<g>
	<g>
		<path class="st0" d="M278.6,230.1c0,6.7-2.6,13-7.3,17.7c-20.3,20.3-47.3,30.8-74.5,30.8c-20.7,0-41.5-6.1-59.5-18.5
			c-46.8-32.1-86.7-72-118.8-118.8C-10.2,99.5-5,43.2,30.8,7.3c9.8-9.8,25.6-9.8,35.3,0l42.4,42.4c9.8,9.8,9.8,25.6,0,35.4l-5.6,5.6
			c-4.3,4.3-6.7,10.1-6.7,16.2c0,6.1,2.4,11.9,6.7,16.2l52.4,52.4c4.3,4.3,10.1,6.7,16.2,6.7s11.9-2.4,16.2-6.7l5.6-5.6
			c9.8-9.8,25.6-9.8,35.4,0l42.4,42.4C276,217.1,278.6,223.4,278.6,230.1z"/>
	</g>
</g>
</svg>
